{
    "accessors" : [{
        "bufferView" : 0, 
        "componentType" : 5121, 
        "count" : 36, 
        "max" : [23], 
        "min" : [0], 
        "type" : "SCALAR"
    }, {
        "bufferView" : 1, 
        "componentType" : 5126, 
        "count" : 24, 
        "max" : [1, 2, 1], 
        "min" : [-1, 0, -1], 
        "type" : "VEC3"
    }, {
        "bufferView" : 2, 
        "componentType" : 5126, 
        "count" : 24, 
        "max" : [1, 1, 1], 
        "min" : [-1, -1, -1], 
        "type" : "VEC3"
    }, {
        "bufferView" : 3, 
        "componentType" : 5126, 
        "count" : 250, 
        "max" : [10.375], 
        "min" : [0], 
        "type" : "SCALAR"
    }, {
        "bufferView" : 4, 
        "componentType" : 5126, 
        "count" : 250, 
        "max" : [0, 3, -0], 
        "min" : [0, 1, -0], 
        "type" : "VEC3"
    }], 
    "animations" : [{
        "channels" : [{
            "sampler" : 0, 
            "target" : {
                "node" : 1, 
                "path" : "translation"
            }
        }], 
        "samplers" : [{
            "input" : 3, 
            "interpolation" : "LINEAR", 
            "output" : 4
        }]
    }], 
    "asset" : {
        "generator" : "Khronos Blender glTF 2.0 exporter", 
        "version" : "2.0"
    }, 
    "bufferViews" : [{
        "buffer" : 0, 
        "byteLength" : 36, 
        "byteOffset" : 0, 
        "target" : 34963
    }, {
        "buffer" : 0, 
        "byteLength" : 288, 
        "byteOffset" : 36, 
        "target" : 34962
    }, {
        "buffer" : 0, 
        "byteLength" : 288, 
        "byteOffset" : 324, 
        "target" : 34962
    }, {
        "buffer" : 0, 
        "byteLength" : 1000, 
        "byteOffset" : 612
    }, {
        "buffer" : 0, 
        "byteLength" : 3000, 
        "byteOffset" : 1612
    }], 
    "buffers" : [{
        "byteLength" : 4612, 
        "uri" : "data:application/octet-stream;base64,"
    }], 
    "materials" : [{
        "name" : "Material", 
        "pbrMetallicRoughness" : {
            "baseColorFactor" : [0.64, 0.64, 0.64, 1], 
            "metallicFactor" : 0
        }
    }], 
    "meshes" : [{
        "name" : "Cube", 
        "primitives" : [{
            "attributes" : {
                "NORMAL" : 2, 
                "POSITION" : 1
            }, 
            "indices" : 0, 
            "material" : 0
        }]
    }], 
    "nodes" : [{
        "name" : "Camera", 
        "rotation" : [0.483536, 0.336872, -0.208704, 0.780483], 
        "translation" : [7.48113, 5.34366, 6.50764]
    }, {
        "mesh" : 0, 
        "name" : "Cube", 
        "translation" : [0, 1, -0]
    }, {
        "name" : "Lamp", 
        "rotation" : [0.169076, 0.75588, -0.272171, 0.570948], 
        "scale" : [1, 1, 1], 
        "translation" : [4.07625, 5.90386, -1.00545]
    }], 
    "scene" : 0, 
    "scenes" : [{
        "name" : "Scene", 
        "nodes" : [1, 2, 0]
    }]
}
