{
    "accessors": [{
        "bufferView": 1,
        "byteOffset": 0,
        "componentType": 5123,
        "count": 36,
        "max": [23],
        "min": [0],
        "name": "accessor_buffer_Cube.001_2",
        "type": "SCALAR"
    },{
        "bufferView": 2,
        "byteOffset": 0,
        "componentType": 5126,
        "count": 24,
        "max": [0,0,1.99356],
        "min": [0,-2.01385,0],
        "name": "accessor_buffer_Cube.002_0",
        "type": "VEC3"
    },{
        "bufferView": 3,
        "byteOffset": 0,
        "componentType": 5126,
        "count": 249,
        "max": [10.3333],
        "min": [0],
        "name": "accessor_buffer_Cube_KeyAction_0",
        "type": "SCALAR"
    },{
        "bufferView": 0,
        "byteOffset": 12,
        "componentType": 5126,
        "count": 24,
        "max": [1,1,1],
        "min": [-1,-1,-1],
        "name": "accessor_buffer_Cube.001_1",
        "type": "VEC3"
    },{
        "bufferView": 2,
        "byteOffset": 12,
        "componentType": 5126,
        "count": 24,
        "max": [0,0.300149,0],
        "min": [-0.303482,0,-0.303482],
        "name": "accessor_buffer_Cube.002_1",
        "type": "VEC3"
    },{
        "bufferView": 4,
        "byteOffset": 0,
        "componentType": 5126,
        "count": 249,
        "max": [1],
        "min": [0],
        "name": "accessor_buffer_Cube_KeyAction_1",
        "type": "SCALAR"
    },{
        "bufferView": 0,
        "byteOffset": 0,
        "componentType": 5126,
        "count": 24,
        "max": [1,1,1],
        "min": [-1,-1,-1],
        "name": "accessor_buffer_Cube.001_0",
        "type": "VEC3"
    }],
    "animations": [{
        "channels": [{
            "sampler": 0,
            "target": {
                "node": 1,
                "path": "weights"
            }
        }],
        "name": "KeyAction",
        "samplers": [{
            "input": 2,
            "interpolation": "LINEAR",
            "output": 5
        }]
    }],
    "asset": {
        "version": "2.0"
    },
    "bufferViews": [{
        "buffer": 0,
        "byteLength": 576,
        "byteOffset": 0,
        "byteStride": 24,
        "name": "bufferView_buffer_Cube.001_0",
        "target": 34962
    },{
        "buffer": 0,
        "byteLength": 76,
        "byteOffset": 576,
        "name": "bufferView_buffer_Cube.001_1",
        "target": 34963
    },{
        "buffer": 0,
        "byteLength": 576,
        "byteOffset": 652,
        "byteStride": 24,
        "name": "bufferView_buffer_Cube.002_0",
        "target": 34962
    },{
        "buffer": 0,
        "byteLength": 996,
        "byteOffset": 1228,
        "byteStride": 4,
        "name": "bufferView_buffer_Cube_KeyAction_0"
    },{
        "buffer": 0,
        "byteLength": 996,
        "byteOffset": 2224,
        "byteStride": 4,
        "name": "bufferView_buffer_Cube_KeyAction_1"
    }],
    "buffers": [{
        "byteLength": 3220,
        "name": "buffer_dw_cude_shape_animate",
        "uri": "data:application/octet-stream;base64,"
    }],
    "cameras": [{
        "name": "Camera",
        "perspective": {
            "aspectRatio": 1.7036,
            "yfov": 0.50338,
            "zfar": 100,
            "znear": 0.1
        },
        "type": "perspective"
    }],
    "images": [{
        "name": "Render Result",
        "uri": ""
    }],
    "materials": [{
        "emissiveFactor": [0,0,0],
        "name": "Material",
        "pbrMetallicRoughness": {
            "baseColorFactor": [0.64,0.64,0.64,1],
            "metallicFactor": 0,
            "roughnessFactor": 1
        }
    }],
    "meshes": [{
        "name": "Cube.001",
        "primitives": [{
            "attributes": {
                "NORMAL": 3,
                "POSITION": 6
            },
            "indices": 0,
            "material": 0,
            "mode": 4,
            "targets": [{
                "NORMAL": 4,
                "POSITION": 1
            }]
        }],
        "weights": [0.709008]
    }],
    "nodes": [{
        "camera": 0,
        "name": "Camera",
        "rotation": [0.483536,0.208704,0.336872,0.780483],
        "scale": [1,1,1],
        "translation": [7.48113,-6.50764,5.34367]
    },{
        "mesh": 0,
        "name": "Cube",
        "rotation": [0,0,0,1],
        "scale": [1,1,1],
        "translation": [0,0,0]
    },{
        "name": "Lamp",
        "rotation": [0.169076,0.272171,0.75588,0.570948],
        "scale": [1,1,1],
        "translation": [4.07625,1.00545,5.90386]
    },{
        "children": [1,2,0],
        "matrix": [-1,0,0,0,0,0,1,0,0,1,0,0,0,0,0,1],
        "name": "Scene_root"
    }],
    "scene": 0,
    "scenes": [{
        "extras": {
            "active_camera": 0,
            "background_color": [0.0508761,0.0508761,0.0508761],
            "frames_per_second": 24
        },
        "name": "Scene",
        "nodes": [3]
    }],
    "textures": [{
        "name": "Tex"
    }]
}
