{
    "accessors" : [{
        "bufferView" : 0, 
        "componentType" : 5123, 
        "count" : 33642, 
        "max" : [5785], 
        "min" : [0], 
        "type" : "SCALAR"
    }, {
        "bufferView" : 1, 
        "componentType" : 5126, 
        "count" : 5786, 
        "max" : [1.98408, 5.58766, -10.4966], 
        "min" : [-1.96987, -0.310863, -22.3308], 
        "type" : "VEC3"
    }, {
        "bufferView" : 2, 
        "componentType" : 5126, 
        "count" : 5786, 
        "max" : [0.997894, 0.999969, 0.999512], 
        "min" : [-0.999573, -0.999969, -0.999969], 
        "type" : "VEC3"
    }, {
        "bufferView" : 3, 
        "componentType" : 5126, 
        "count" : 5786, 
        "max" : [2.61168, 1.11795], 
        "min" : [-1.5911, -0.110041], 
        "type" : "VEC2"
    }, {
        "bufferView" : 4, 
        "componentType" : 5126, 
        "count" : 5786, 
        "max" : [0, 8.08263, 0], 
        "min" : [0, 0, 0], 
        "type" : "VEC3"
    }, {
        "bufferView" : 5, 
        "componentType" : 5126, 
        "count" : 5786, 
        "max" : [1.99679, 1.96306, 1.94982], 
        "min" : [-1.98348, -1.9956, -1.93307], 
        "type" : "VEC3"
    }, {
        "bufferView" : 6, 
        "componentType" : 5126, 
        "count" : 249, 
        "max" : [8.26667], 
        "min" : [0], 
        "type" : "SCALAR"
    }, {
        "bufferView" : 7, 
        "componentType" : 5126, 
        "count" : 249, 
        "max" : [1], 
        "min" : [0], 
        "type" : "SCALAR"
    }], 
    "animations" : [{
        "channels" : [{
            "sampler" : 0, 
            "target" : {
                "node" : 3, 
                "path" : "weights"
            }
        }], 
        "samplers" : [{
            "input" : 6, 
            "interpolation" : "LINEAR", 
            "output" : 7
        }]
    }], 
    "asset" : {
        "generator" : "Khronos Blender glTF 2.0 exporter", 
        "version" : "2.0"
    }, 
    "bufferViews" : [{
        "buffer" : 0, 
        "byteLength" : 67284, 
        "byteOffset" : 0, 
        "target" : 34963
    }, {
        "buffer" : 0, 
        "byteLength" : 69432, 
        "byteOffset" : 67284, 
        "target" : 34962
    }, {
        "buffer" : 0, 
        "byteLength" : 69432, 
        "byteOffset" : 136716, 
        "target" : 34962
    }, {
        "buffer" : 0, 
        "byteLength" : 46288, 
        "byteOffset" : 206148, 
        "target" : 34962
    }, {
        "buffer" : 0, 
        "byteLength" : 69432, 
        "byteOffset" : 252436
    }, {
        "buffer" : 0, 
        "byteLength" : 69432, 
        "byteOffset" : 321868
    }, {
        "buffer" : 0, 
        "byteLength" : 996, 
        "byteOffset" : 391300
    }, {
        "buffer" : 0, 
        "byteLength" : 996, 
        "byteOffset" : 392296
    }], 
    "buffers" : [{
        "byteLength" : 393292, 
        "uri" : "data:application/octet-stream;base64,"
    }], 
    "cameras" : [{
        "name" : "Camera", 
        "perspective" : {
            "aspectRatio" : 1.77778, 
            "yfov" : 0.50338, 
            "zfar" : 100, 
            "znear" : 0.1
        }, 
        "type" : "perspective"
    }], 
    "meshes" : [{
        "extras" : {
            "targetNames" : ["Key 1"]
        }, 
        "name" : "Untitled.030", 
        "primitives" : [{
            "attributes" : {
                "NORMAL" : 2, 
                "POSITION" : 1, 
                "TEXCOORD_0" : 3
            }, 
            "indices" : 0, 
            "targets" : [{
                "NORMAL" : 5, 
                "POSITION" : 4
            }]
        }], 
        "weights" : [1]
    }], 
    "nodes" : [{
        "camera" : 0, 
        "name" : "Correction_Camera", 
        "rotation" : [-0.707107, -0, 0, 0.707107]
    }, {
        "children" : [0], 
        "name" : "Camera", 
        "rotation" : [0.5, 0.5, -0.5, 0.5], 
        "translation" : [2.5, 0, -0]
    }, {
        "name" : "Lamp", 
        "rotation" : [0.169076, 0.75588, -0.272171, 0.570948], 
        "scale" : [1, 1, 1], 
        "translation" : [4.07625, 5.90386, -1.00545]
    }, {
        "extras" : {
            "MaxHandle" : 66
        }, 
        "mesh" : 0, 
        "name" : "shoe", 
        "rotation" : [-2.18557e-08, 0, -0, 1], 
        "scale" : [0.1016, 0.1016, 0.1016], 
        "translation" : [-0.0267916, -0.139184, 1.47645]
    }], 
    "scene" : 0, 
    "scenes" : [{
        "name" : "Scene", 
        "nodes" : [3, 2, 1]
    }]
}
