{
    "accessors" : [
        {
            "bufferView" : 0,
            "componentType" : 5121,
            "count" : 36,
            "max" : [
                23
            ],
            "min" : [
                0
            ],
            "type" : "SCALAR"
        },
        {
            "bufferView" : 1,
            "componentType" : 5126,
            "count" : 24,
            "max" : [
                1.0000004768371582,
                1.0,
                1.0000005960464478
            ],
            "min" : [
                -1.0000003576278687,
                -1.0,
                -1.0000003576278687
            ],
            "type" : "VEC3"
        },
        {
            "bufferView" : 2,
            "componentType" : 5126,
            "count" : 24,
            "max" : [
                1.0,
                1.0,
                1.0
            ],
            "min" : [
                -1.0,
                -1.0,
                -1.0
            ],
            "type" : "VEC3"
        },
        {
            "bufferView" : 3,
            "componentType" : 5126,
            "count" : 3,
            "max" : [
                10.375
            ],
            "min" : [
                0.0
            ],
            "type" : "SCALAR"
        },
        {
            "bufferView" : 4,
            "componentType" : 5126,
            "count" : 9,
            "max" : [
                2.0,
                4.0,
                -0.0
            ],
            "min" : [
                0.0,
                0.0,
                -0.0
            ],
            "type" : "VEC3"
        }
    ],
    "animations" : [
        {
            "channels" : [
                {
                    "sampler" : 0,
                    "target" : {
                        "node" : 2,
                        "path" : "translation"
                    }
                }
            ],
            "samplers" : [
                {
                    "input" : 3,
                    "interpolation" : "CUBICSPLINE",
                    "output" : 4
                }
            ]
        }
    ],
    "asset" : {
        "generator" : "Khronos Blender glTF 2.0 exporter",
        "version" : "2.0"
    },
    "bufferViews" : [
        {
            "buffer" : 0,
            "byteLength" : 36,
            "byteOffset" : 0,
            "target" : 34963
        },
        {
            "buffer" : 0,
            "byteLength" : 288,
            "byteOffset" : 36,
            "target" : 34962
        },
        {
            "buffer" : 0,
            "byteLength" : 288,
            "byteOffset" : 324,
            "target" : 34962
        },
        {
            "buffer" : 0,
            "byteLength" : 12,
            "byteOffset" : 612
        },
        {
            "buffer" : 0,
            "byteLength" : 108,
            "byteOffset" : 624
        }
    ],
    "buffers" : [
        {
            "byteLength" : 732,
            "uri" : "data:application/octet-stream;base64,"
        }
    ],
    "cameras" : [
        {
            "name" : "Camera",
            "perspective" : {
                "aspectRatio" : 1.7777777777777777,
                "yfov" : 0.5033799372418416,
                "zfar" : 100.0,
                "znear" : 0.10000000149011612
            },
            "type" : "perspective"
        }
    ],
    "materials" : [
        {
            "name" : "Material",
            "pbrMetallicRoughness" : {
                "baseColorFactor" : [
                    0.6400000190734865,
                    0.6400000190734865,
                    0.6400000190734865,
                    1.0
                ],
                "metallicFactor" : 0.0
            }
        }
    ],
    "meshes" : [
        {
            "name" : "Cube",
            "primitives" : [
                {
                    "attributes" : {
                        "NORMAL" : 2,
                        "POSITION" : 1
                    },
                    "indices" : 0,
                    "material" : 0
                }
            ]
        }
    ],
    "nodes" : [
        {
            "camera" : 0,
            "name" : "Correction_Camera",
            "rotation" : [
                -0.7071067690849304,
                -0.0,
                0.0,
                0.7071067690849304
            ]
        },
        {
            "children" : [
                0
            ],
            "name" : "Camera",
            "rotation" : [
                0.7071068286895752,
                0.0,
                -0.0,
                0.7071068286895752
            ],
            "translation" : [
                0.0,
                1.0,
                6.5
            ]
        },
        {
            "mesh" : 0,
            "name" : "Cube",
            "rotation" : [
                0.0,
                0.3826834559440613,
                -0.0,
                0.9238795638084412
            ],
            "scale" : [
                0.9999999403953552,
                1.0,
                0.9999999403953552
            ],
            "translation" : [
                0.0,
                1.0,
                -0.0
            ]
        },
        {
            "name" : "Lamp",
            "rotation" : [
                0.16907575726509094,
                0.7558802962303162,
                -0.27217137813568115,
                0.570947527885437
            ],
            "scale" : [
                1.0,
                1.0,
                0.9999999403953552
            ],
            "translation" : [
                4.076245307922363,
                5.903861999511719,
                -1.0054539442062378
            ]
        }
    ],
    "scene" : 0,
    "scenes" : [
        {
            "name" : "Scene",
            "nodes" : [
                2,
                3,
                1
            ]
        }
    ]
}
